<?xml version="1.0" standalone="no"?>
<!DOCTYPE svg PUBLIC "-//W3C//DTD SVG 20010904//EN"
 "http://www.w3.org/TR/2001/REC-SVG-20010904/DTD/svg10.dtd">
<svg version="1.0" xmlns="http://www.w3.org/2000/svg"
 width="260.000000pt" height="260.000000pt" viewBox="0 0 260.000000 260.000000"
 preserveAspectRatio="xMidYMid meet">
<metadata>
Created by potrace 1.14, written by Peter Selinger 2001-2017
</metadata>
<g transform="translate(0.000000,260.000000) scale(0.100000,-0.100000)"
fill="#000000" stroke="none">
<path d="M542 1478 l3 -473 95 0 95 0 3 310 3 310 123 -305 122 -305 68 0 68
0 122 304 121 304 5 -309 5 -309 95 0 95 0 3 473 2 473 -126 -3 -126 -3 -127
-310 c-70 -170 -132 -310 -137 -310 -5 0 -66 140 -136 310 l-127 310 -125 3
-126 3 2 -473z"/>
<path d="M1788 1163 c-3 -312 -5 -362 -20 -389 -51 -92 -208 -58 -208 46 0 19
-6 20 -100 20 l-100 0 0 -32 c0 -67 21 -112 75 -165 69 -67 132 -87 250 -81
135 7 227 65 279 177 20 44 21 61 21 411 l0 365 -97 3 -97 3 -3 -358z"/>
</g>
</svg>
