<svg width="208" height="75" viewBox="0 0 208 75" fill="none" xmlns="http://www.w3.org/2000/svg">
<path d="M24.3602 58L10.6002 13.2H10.2802C10.3335 14.2667 10.4135 15.8667 10.5202 18C10.6269 20.1333 10.7335 22.4267 10.8402 24.88C10.9469 27.28 11.0002 29.4667 11.0002 31.44V58H0.200195V0.880013H16.6802L30.2002 44.56H30.4402L44.7602 0.880013H61.2402V58H49.9602V30.96C49.9602 29.1467 49.9869 27.0667 50.0402 24.72C50.1469 22.3733 50.2269 20.16 50.2802 18.08C50.3869 15.9467 50.4669 14.3467 50.5202 13.28H50.2002L35.4802 58H24.3602Z" fill="black"/>
<path d="M110.629 58L106.469 44.4H85.6689L81.5089 58H68.4689L88.629 0.640015H103.429L123.669 58H110.629ZM99.4289 20.96C99.1623 20.0533 98.8156 18.9067 98.3889 17.52C97.9623 16.1333 97.5356 14.72 97.1089 13.28C96.6823 11.84 96.3356 10.5867 96.069 9.52002C95.8023 10.5867 95.429 11.92 94.949 13.52C94.5223 15.0667 94.0956 16.56 93.669 18C93.2956 19.3867 93.0023 20.3733 92.7889 20.96L88.709 34.24H103.589L99.4289 20.96Z" fill="black"/>
<path d="M128.888 74.8C127.341 74.8 125.981 74.6934 124.808 74.48C123.634 74.32 122.621 74.1333 121.768 73.92V63.84C122.621 64.0534 123.528 64.24 124.488 64.4C125.394 64.56 126.381 64.64 127.448 64.64C128.834 64.64 130.088 64.3734 131.208 63.84C132.381 63.3067 133.288 62.2934 133.928 60.8C134.568 59.3067 134.888 57.1734 134.888 54.4V0.880013H146.968V54.32C146.968 59.2267 146.194 63.1734 144.648 66.16C143.154 69.2 141.048 71.3867 138.328 72.72C135.608 74.1067 132.461 74.8 128.888 74.8Z" fill="black"/>
<path d="M207.852 37.84C207.852 41.7867 206.972 45.36 205.212 48.56C203.505 51.7067 200.892 54.2134 197.372 56.08C193.905 57.8934 189.505 58.8 184.172 58.8C176.599 58.8 170.839 56.88 166.892 53.04C162.945 49.1467 160.972 44.0267 160.972 37.68V0.880013H173.052V35.84C173.052 40.5333 174.012 43.84 175.932 45.76C177.852 47.68 180.705 48.64 184.492 48.64C187.159 48.64 189.319 48.1867 190.972 47.28C192.625 46.3733 193.825 44.96 194.572 43.04C195.372 41.12 195.772 38.6933 195.772 35.76V0.880013H207.852V37.84Z" fill="black"/>
</svg>
