<svg width="125" height="46" viewBox="0 0 125 46" fill="none" xmlns="http://www.w3.org/2000/svg">
<path d="M14.8158 35L6.55982 8.11998H6.36782C6.39982 8.75998 6.44782 9.71998 6.51183 11C6.57583 12.28 6.63982 13.656 6.70382 15.128C6.76782 16.568 6.79982 17.88 6.79982 19.064V35H0.319824V0.727982H10.2078L18.3198 26.936H18.4638L27.0558 0.727982H36.9438V35H30.1758V18.776C30.1758 17.688 30.1918 16.44 30.2238 15.032C30.2878 13.624 30.3358 12.296 30.3678 11.048C30.4318 9.76798 30.4798 8.80798 30.5118 8.16798H30.3198L21.4878 35H14.8158Z" fill="black"/>
<path d="M66.5771 35L64.0811 26.84H51.6011L49.1051 35H41.2811L53.3771 0.583984H62.2571L74.4011 35H66.5771ZM59.8571 12.776C59.6971 12.232 59.4891 11.544 59.2331 10.712C58.9771 9.87998 58.7211 9.03198 58.4651 8.16798C58.2091 7.30398 58.0011 6.55198 57.8411 5.91198C57.6811 6.55198 57.4571 7.35198 57.1691 8.31198C56.9131 9.23998 56.6571 10.136 56.4011 11C56.1771 11.832 56.0011 12.424 55.8731 12.776L53.4251 20.744H62.3531L59.8571 12.776Z" fill="black"/>
<path d="M77.5323 45.08C76.6043 45.08 75.7883 45.016 75.0843 44.888C74.3803 44.792 73.7723 44.68 73.2603 44.552V38.504C73.7723 38.632 74.3163 38.744 74.8923 38.84C75.4363 38.936 76.0283 38.984 76.6683 38.984C77.5003 38.984 78.2523 38.824 78.9243 38.504C79.6283 38.184 80.1723 37.576 80.5563 36.68C80.9403 35.784 81.1323 34.504 81.1323 32.84V0.727982H88.3803V32.792C88.3803 35.736 87.9163 38.104 86.9883 39.896C86.0923 41.72 84.8283 43.032 83.1963 43.832C81.5643 44.664 79.6763 45.08 77.5323 45.08Z" fill="black"/>
<path d="M124.911 22.904C124.911 25.272 124.383 27.416 123.327 29.336C122.303 31.224 120.735 32.728 118.623 33.848C116.543 34.936 113.903 35.48 110.703 35.48C106.159 35.48 102.703 34.328 100.335 32.024C97.967 29.688 96.783 26.616 96.783 22.808V0.727982H104.031V21.704C104.031 24.52 104.607 26.504 105.759 27.656C106.911 28.808 108.623 29.384 110.895 29.384C112.495 29.384 113.791 29.112 114.783 28.568C115.775 28.024 116.495 27.176 116.943 26.024C117.423 24.872 117.663 23.416 117.663 21.656V0.727982H124.911V22.904Z" fill="black"/>
</svg>
