<svg width="147" height="64" viewBox="0 0 147 64" fill="none" xmlns="http://www.w3.org/2000/svg">
<path d="M0 46.0738V38.566L18.8246 8.90906H25.2976V19.3011H21.4666L9.59943 38.0816V38.4339H36.3501V46.0738H0ZM21.6428 54V43.7841L21.8189 40.4595V8.90906H30.7578V54H21.6428Z" fill="black"/>
<path d="M110 46.0738V38.566L128.825 8.90906H135.298V19.3011H131.467L119.599 38.0816V38.4339H146.35V46.0738H110ZM131.643 54V43.7841L131.819 40.4595V8.90906H140.758V54H131.643Z" fill="black"/>
<path d="M75.028 5.33337C89.7747 5.33337 101.695 17.2534 101.695 32C101.695 46.7467 89.7747 58.6667 75.028 58.6667C60.2813 58.6667 48.3613 46.7467 48.3613 32C48.3613 17.2534 60.2813 5.33337 75.028 5.33337ZM84.6013 18.6667L75.028 28.24L65.4547 18.6667L61.6947 22.4267L71.268 32L61.6947 41.5734L65.4547 45.3334L75.028 35.76L84.6013 45.3334L88.3613 41.5734L78.788 32L88.3613 22.4267L84.6013 18.6667Z" fill="black"/>
</svg>
